<?xml version="1.0" encoding="UTF-8"?><svg id="Layer_2" xmlns="http://www.w3.org/2000/svg" xmlns:xlink="http://www.w3.org/1999/xlink" viewBox="0 0 154.35 103.64"><defs><style>.cls-1{fill:url(#linear-gradient);}.cls-2{fill:url(#linear-gradient-8);}.cls-3{fill:url(#linear-gradient-9);}.cls-4{fill:url(#linear-gradient-3);}.cls-5{fill:url(#linear-gradient-4);}.cls-6{fill:url(#linear-gradient-2);}.cls-7{fill:url(#linear-gradient-6);}.cls-8{fill:url(#linear-gradient-7);}.cls-9{fill:url(#linear-gradient-5);}.cls-10{fill:url(#linear-gradient-13);}.cls-11{fill:url(#linear-gradient-12);}.cls-12{fill:url(#linear-gradient-10);}.cls-13{fill:url(#linear-gradient-11);}</style><linearGradient id="linear-gradient" x1="25.9" y1="112" x2="135.07" y2="63.81" gradientUnits="userSpaceOnUse"><stop offset="0" stop-color="aqua"/><stop offset=".53" stop-color="#0071bc"/><stop offset="1" stop-color="#0071bc"/></linearGradient><linearGradient id="linear-gradient-2" x1="12.35" y1="81.31" x2="121.53" y2="33.12" gradientUnits="userSpaceOnUse"><stop offset=".2" stop-color="#2a88c7"/><stop offset="1" stop-color="#0071bc"/></linearGradient><linearGradient id="linear-gradient-3" x1="129.51" y1="72.14" x2="144.13" y2="72.14" xlink:href="#linear-gradient-2"/><linearGradient id="linear-gradient-4" x1="66.94" y1="95.45" x2="95.55" y2="35.97" gradientUnits="userSpaceOnUse"><stop offset="0" stop-color="#0071bc"/><stop offset=".8" stop-color="#2a88c7"/></linearGradient><linearGradient id="linear-gradient-5" x1="-1.13" y1="15.73" x2="149.84" y2="15.73" xlink:href="#linear-gradient"/><linearGradient id="linear-gradient-6" x1="-1.13" y1="8.13" x2="149.84" y2="8.13" xlink:href="#linear-gradient"/><linearGradient id="linear-gradient-7" x1="-1.13" y1="28.33" x2="149.84" y2="28.33" xlink:href="#linear-gradient"/><linearGradient id="linear-gradient-8" x1="-1.13" y1="47.01" x2="149.84" y2="47.01" xlink:href="#linear-gradient"/><linearGradient id="linear-gradient-9" x1="-1.13" y1="4.8" x2="149.84" y2="4.8" xlink:href="#linear-gradient"/><linearGradient id="linear-gradient-10" x1="-1.13" y1="24.66" x2="149.84" y2="24.66" xlink:href="#linear-gradient"/><linearGradient id="linear-gradient-11" x1="-1.13" y1="38.79" x2="149.84" y2="38.79" xlink:href="#linear-gradient"/><linearGradient id="linear-gradient-12" x1="-1.13" y1="7.06" x2="149.84" y2="7.06" xlink:href="#linear-gradient"/><linearGradient id="linear-gradient-13" x1="-1.13" y1="13.58" x2="149.84" y2="13.58" xlink:href="#linear-gradient"/></defs><g id="Layer_1-2"><path class="cls-1" d="M126.33,99.5h-35.78c-.55,0-1-.45-1-1v-5c0-.55,.45-1,1-1h28.78c.55,0,1-.45,1-1V52.78c0-.55-.45-1-1-1h-13.25c-.55,0-1-.45-1-1v-5c0-.55,.45-1,1-1h20.25c.55,0,1,.45,1,1v52.72c0,.55-.45,1-1,1Z"/><path class="cls-6" d="M43.25,99.5H23.01c-.55,0-1-.45-1-1V45.78c0-.55,.45-1,1-1H58.78c.55,0,1,.45,1,1v5c0,.55-.45,1-1,1H30.01c-.55,0-1,.45-1,1v38.72c0,.55,.45,1,1,1h13.25c.55,0,1,.45,1,1v5c0,.55-.45,1-1,1Z"/><path class="cls-4" d="M143.13,87.08h-12.62c-.55,0-1-.45-1-1v-5c0-.55,.45-1,1-1h5.62c.55,0,1-.45,1-1v-13.87c0-.55-.45-1-1-1h-5.62c-.55,0-1-.45-1-1v-5c0-.55,.45-1,1-1h12.62c.55,0,1,.45,1,1v27.87c0,.55-.45,1-1,1Z"/><path class="cls-5" d="M99.56,33.09c.25-.94,.19-1.96-.57-2.66-1.09-1.02-2.63-.91-3.65,.19-.42,.45-.76,.88-1.12,1.5l-34.63,56.81h0c-2.49,3.79-1.85,9,1.58,12.19,3.83,3.56,9.81,3.34,13.37-.49,.51-.54,.93-1.14,1.28-1.76h0s0-.01,0-.01c.55-.96,.93-1.81,1.3-3.04l22.43-62.73Zm-28.63,64.18c-1.7,1.83-4.57,1.94-6.4,.23s-1.94-4.57-.23-6.4,4.57-1.94,6.4-.23,1.94,4.57,.23,6.4Z"/><g><path class="cls-9" d="M29.68,16.28l3.72,6.48c3.04-2.01,6.26-3.9,9.64-5.59l-1.39-8.47c-4.3,2.15-8.28,4.68-11.97,7.58Z"/><path class="cls-7" d="M48.23,5.81l1.24,8.47c3.93-1.56,8.04-2.82,12.33-3.67V1.97c-4.86,.95-9.36,2.24-13.58,3.84Z"/><path class="cls-8" d="M14.48,32.04l3.12,3.42c2.9-2.77,6.12-5.58,9.64-8.29l-3.18-5.98c-3.41,3.27-6.59,6.89-9.58,10.86Z"/><path class="cls-2" d="M0,56.09s4.43-6.91,12.42-15.41l-2.09-2.74c-3.65,5.52-7.05,11.58-10.33,18.16Z"/><path class="cls-3" d="M69.78,.75l-.93,8.85c3.71-.33,7.54-.35,11.47,0l2.49-9.6c-4.58,.04-8.92,.28-13.03,.75Z"/><path class="cls-12" d="M131.29,16.7l-10.66,9.62c2.56,1.91,5.13,4,7.73,6.29l12.88-6.66c-2.85-3.06-6.17-6.22-9.96-9.25Z"/><path class="cls-13" d="M154.35,43.79s-2.75-5.33-8.31-12.28l-12.13,6.25c2.63,2.57,5.29,5.34,7.96,8.32l12.48-2.29Z"/><path class="cls-11" d="M91.34,.27l-4.36,10.29c3.73,.73,7.54,1.81,11.43,3.29l7.2-10.84c-4.44-1.34-9.2-2.29-14.27-2.73Z"/><path class="cls-10" d="M113.15,5.75l-8.35,10.85c2.86,1.38,5.76,2.98,8.69,4.82l11.66-9.19c-3.65-2.41-7.65-4.62-12-6.48Z"/></g></g></svg>