<?xml version="1.0" encoding="UTF-8"?><svg id="Layer_2" xmlns="http://www.w3.org/2000/svg" viewBox="0 0 216 40.56"><defs><style>.cls-1{fill:#fff;}.cls-2{fill:#9d9c9c;}.cls-3{fill:#9d9d9c;}.cls-4{fill:#c6c6c6;}.cls-5{fill:#1d1d1b;}</style></defs><g id="Layer_1-2"><g><g><path class="cls-5" d="M96.47,11.18V29.12h-3.29v-7.33h-11.76v7.33h-3.29V11.18h3.29v7.33h11.76v-7.33h3.29Z"/><path class="cls-5" d="M128.19,11.18l-8.3,11.24v6.7h-3.29v-6.7c-.65-.9-1.33-1.82-2.03-2.77-.71-.95-1.42-1.9-2.13-2.85-.72-.95-1.42-1.91-2.12-2.85-.7-.95-1.37-1.87-2.02-2.77h3.92l6.03,7.63,6.01-7.63h3.94Z"/><path class="cls-5" d="M153.79,11.2c.48,0,.94,.09,1.36,.27,.42,.18,.79,.43,1.11,.75,.32,.32,.57,.69,.75,1.11,.18,.42,.28,.87,.28,1.33v4.84c0,.48-.09,.93-.28,1.35-.18,.42-.43,.78-.75,1.1-.31,.32-.68,.57-1.11,.75-.42,.18-.88,.27-1.36,.27l-11.09,.03-.07-.03v6.16h-3.29V11.2h14.46Zm.18,3.46c0-.12-.06-.17-.18-.17h-10.99c-.12,0-.17,.06-.17,.17v4.84c0,.12,.06,.17,.17,.17h10.99c.12,0,.18-.06,.18-.17v-4.84Z"/><path class="cls-5" d="M185.57,14.47h-13.19v4.04h10.62v3.29h-10.62v4.04h13.19v3.29h-16.5V11.18h16.5v3.29Z"/><path class="cls-5" d="M216,19.5c0,.48-.09,.93-.28,1.35-.18,.42-.43,.78-.75,1.1-.32,.32-.69,.57-1.11,.75-.42,.18-.88,.27-1.36,.27h-.97l4.46,5.31v.85h-3.59l-5.18-6.16h-5.88v6.16h-3.29V11.2h14.46c.48,0,.93,.09,1.36,.27,.42,.18,.79,.43,1.11,.75s.56,.69,.75,1.11c.18,.42,.28,.87,.28,1.33v4.84Zm-3.49,.17c.12,0,.17-.06,.17-.17v-4.84c0-.12-.06-.17-.17-.17h-10.99c-.12,0-.17,.06-.17,.17v4.84c0,.12,.06,.17,.17,.17h10.99Z"/></g><g><polyline class="cls-3" points="27.67 13.72 26.66 13.72 26.66 .14 13.58 .14 13.58 13.69 0 13.69 0 26.77 13.58 26.77 13.58 40.42 26.66 40.42 26.66 26.83 26.7 26.83 26.7 26.77 40.29 26.77 40.29 13.69 27.67 13.69 27.67 13.72"/><polyline class="cls-2" points="26.5 13.55 26.5 26.91 26.66 26.91 26.66 26.83 26.7 26.83 26.7 26.77 40.29 26.77 40.29 26.63 26.78 26.63 26.78 13.83 40.29 13.86 40.29 13.69 27.67 13.69 27.67 13.72 26.66 13.72 26.66 13.55 26.5 13.55"/><polyline class="cls-1" points="53.17 .28 40.36 .28 40.36 13.69 40.36 13.86 40.29 13.86 40.29 26.63 40.36 26.63 40.36 40.28 53.17 40.28 53.16 26.63 66.79 26.63 66.79 13.83 53.17 13.86 53.17 .28"/><polyline class="cls-4" points="26.66 13.83 26.66 26.63 40.36 26.63 40.36 13.86"/><path class="cls-3" d="M53.46,13.58V0h-13.38V13.58l-13.58-.04v13.36h13.58v13.65h13.37v-13.65s13.62,0,13.62,0V13.55l-13.6,.04Zm13.33,13.04h-13.62s0,13.65,0,13.65h-12.81v-13.65h-13.58V13.83l13.58,.04V.28h12.81V13.86s13.62-.04,13.62-.04v12.8Z"/></g></g></g></svg>