<?xml version="1.0" encoding="UTF-8"?><svg id="Layer_2" xmlns="http://www.w3.org/2000/svg" viewBox="0 0 346.14 64"><defs><style>.cls-1{fill:#ffc627;}.cls-2{fill:gray;}</style></defs><g id="Layer_1-2"><path d="M18.8,21.72c8.53,1.67,17.9,3.61,17.28,15.68-.49,9-9.09,13.46-17.83,13.46-7.42,0-15.19-3.54-18.25-10.55l5.34-2.43c2.08,4.72,7.7,7.22,13,7.22,5.83,0,11.52-2.64,11.86-8,.63-7.08-5.9-8.47-12.84-9.92C9.36,25.51,1.05,23.02,.99,13.18,1.48,4.58,9.8,0,18.27,0c7.29,0,15,3.4,18,10.27l-5.27,2.36c-2-4.58-7.49-7-12.7-7-5.69,0-11.17,2.57-11.52,7.77-.4,5.89,5.57,7.07,12.02,8.32Z"/><path d="M56.48,50.03c-8.4,1.11-14.71-3.61-14.71-11.65V.83h5.45V14.09h7.36v5.55h-7.36v18.73c0,4.09,3.47,8,9.23,6.87l.03,4.79Z"/><path d="M73.13,13.6c-4.85,.03-9.47,2.07-12.77,5.62l3.82,3.68c2.11-2.51,5.25-3.94,8.53-3.88,4.3,0,8.47,2,8.47,6.17v3.75c-2.39-1.36-5.09-2.07-7.84-2.08-7.29,0-14.22,3-14.29,11.59,0,7.7,5.62,12.35,12.84,12.42,5.05,.06,10.08-.76,14.85-2.43V25.19c-.01-7.77-6.74-11.59-13.61-11.59Zm8,31.64c-3.02,.58-6.09,.81-9.16,.69-4.23-.07-7.49-2.91-7.49-7.49,.07-5.13,4.09-6.24,8.6-6.24,2.73,.06,5.43,.55,8,1.46l.05,11.58Z"/><path d="M109.62,14.02v5.69c-2.57-.42-3.19-.69-5.48-.14-2.84,.76-5.55,2.84-5.55,6.17v24.28h-5.55V25.74c0-6.45,4.58-10.55,10.27-11.65,2.07-.47,4.23-.5,6.31-.07Z"/><polygon points="139.81 .83 139.81 6.66 124.06 6.66 124.06 50.02 118.23 50.02 118.23 6.66 102.48 6.66 102.48 .83 139.81 .83"/><path d="M159.93,34.97v-9.65c0-8-6.94-11.93-13.74-11.93s-13.97,3.89-13.97,11.94v13.6c0,8,7,11.93,13.95,11.93,5.55,.12,10.68-2.96,13.18-7.91l-5-2.5c-1.51,3.12-4.72,5.05-8.19,4.93-4.23,0-8.4-2.08-8.33-6.45v-4l22.1,.04Zm-22.07-9.65c-.07-4.37,4.09-6.45,8.33-6.45s8.46,2.08,8.46,6.31v5.13h-16.79v-4.99Z"/><path d="M187.13,22.62c-1.32-2.5-4.72-3.61-7.91-3.61-4.16,0-8.33,2.08-8.33,6.45v13.25c0,4.23,4.16,6.31,8.33,6.31,3.61,0,7.28-1.81,8.4-5.69l5.06,2.43c-2.08,6-7.91,8.81-13.46,8.81-6.87,0-13.88-4-13.88-12v-13.1c0-8,7-12,13.88-12,5.28-.13,10.22,2.61,12.91,7.15l-4.51,2.7-.49-.7Z"/><path d="M224.59,26.02c0-7.77-6.87-12.07-13.81-11.93-2.88,0-5.72,.72-8.26,2.08V1.6h-5.55V50.03h5.55V21.16c2.65-1.05,5.48-1.57,8.33-1.53,4.09,.07,8.26,2.08,8.26,6.31v7.64c1.68-1.16,3.53-2.04,5.48-2.62v-4.94Z"/><path class="cls-2" d="M249.33,50.58v-1.1c0-1.51-.18-3.01-.53-4.47h.47c3.61,0,7.29-1.81,8.39-5.69l5.07,2.43c-2.04,5.98-7.86,8.82-13.4,8.83Z"/><path class="cls-2" d="M280.32,13.19c-6.94,.07-13.95,4-13.95,12v13.53c0,8,7,11.93,13.95,12s13.81-4,13.81-12v-13.53c0-7.98-6.91-11.94-13.81-12Zm8.26,25.53c0,4.51-4.37,6.52-8.26,6.52s-8.39-2-8.39-6.52v-13.53c0-4.51,4.37-6.45,8.39-6.45s8.26,1.94,8.26,6.45v13.53Z"/><path class="cls-2" d="M299.49,50.03h5.55V20.96c3.81-2.71,14.85-2.36,14.85,4v25.12h5.41V24.91c0-3.4,4-5.13,7.29-5.2,4.09-.07,8,1.46,8,6.52v23.8h5.55V26.09c0-8.26-6.38-12.14-13.74-11.86-3.67,.04-7.19,1.47-9.85,4-2.92-2.77-6.83-4.26-10.85-4.14-4.27,.11-8.46,1.22-12.21,3.26V50.03Z"/><path class="cls-2" d="M240.98,33.58c-1.7-1.17-3.57-2.06-5.55-2.63v-5.48c0-8,7-12,13.88-12,5.28-.12,10.21,2.61,12.9,7.15l-4.51,2.7-.49-.69c-1.32-2.5-4.72-3.61-7.91-3.61-4.16,0-8.33,2.08-8.33,6.45v8.11Z"/><path class="cls-1" d="M230.06,64c8.01,0,14.51-6.5,14.51-14.51s-6.5-14.51-14.51-14.51c-8.01,0-14.5,6.49-14.51,14.5,0,8.02,6.49,14.51,14.51,14.52"/></g></svg>